<svg width="109" height="20" viewBox="0 0 109 20" fill="none" xmlns="http://www.w3.org/2000/svg">
<g clip-path="url(#clip0_19833_4)">
<path d="M5.7125 0C2.56406 0 0 2.52969 0 5.6375C0 6.59063 0.248438 7.52031 0.7125 8.35C0.603125 8.925 0.55 9.51719 0.55 10.1C0.55 15.3 4.82969 19.525 10.1 19.525C10.6406 19.525 11.1813 19.4891 11.7125 19.4C12.5031 19.7953 13.3922 20 14.2875 20C17.4359 20 20 17.4703 20 14.3625C20 13.5281 19.8156 12.7313 19.4625 11.9875C19.5906 11.3734 19.6625 10.7391 19.6625 10.1C19.6625 4.90156 15.3703 0.675 10.1 0.675C9.60469 0.675 9.10469 0.7125 8.6125 0.7875C7.73438 0.273438 6.73906 0 5.7125 0ZM10.0375 3.75C10.8563 3.75 11.5734 3.83906 12.175 4.025C12.7781 4.20938 13.2891 4.45469 13.6875 4.7625C14.0906 5.07344 14.3984 5.40469 14.5875 5.75C14.7781 6.09844 14.875 6.45313 14.875 6.7875C14.875 7.11094 14.7375 7.39375 14.4875 7.65C14.2375 7.90625 13.9234 8.0375 13.55 8.0375C13.2109 8.0375 12.9469 7.95938 12.7625 7.8C12.5906 7.65 12.4094 7.42188 12.2125 7.0875C11.9844 6.65938 11.7172 6.31094 11.4 6.075C11.0922 5.84531 10.5688 5.7375 9.8625 5.7375C9.20625 5.7375 8.67031 5.85625 8.275 6.1125C7.89219 6.35938 7.7125 6.65156 7.7125 6.9875C7.7125 7.19375 7.77656 7.36406 7.9 7.5125C8.03125 7.66875 8.20469 7.79844 8.4375 7.9125C8.67813 8.03125 8.92656 8.13281 9.175 8.2C9.42969 8.26875 9.86406 8.37813 10.45 8.5125C11.1906 8.67031 11.8719 8.83594 12.475 9.025C13.0844 9.21875 13.6078 9.46094 14.0375 9.7375C14.475 10.0188 14.8281 10.3797 15.075 10.8125C15.3219 11.2453 15.4375 11.7766 15.4375 12.4C15.4359 13.1438 15.2266 13.8188 14.8 14.4125C14.375 15.0047 13.7484 15.4813 12.9375 15.8125C12.1344 16.1406 11.1703 16.3 10.075 16.3C8.75938 16.3 7.65938 16.0766 6.8 15.625C6.18438 15.2984 5.67031 14.8469 5.2875 14.3C4.89688 13.7469 4.7 13.2047 4.7 12.675C4.7 12.3453 4.83438 12.0609 5.0875 11.825C5.33906 11.5938 5.65469 11.475 6.0375 11.475C6.35156 11.475 6.62969 11.5656 6.85 11.75C7.0625 11.9266 7.24219 12.1891 7.3875 12.525C7.55 12.8922 7.72344 13.1922 7.9125 13.4375C8.09063 13.6703 8.34531 13.8719 8.675 14.025C9.00625 14.1813 9.46094 14.2625 10.0125 14.2625C10.7703 14.2625 11.3844 14.1016 11.85 13.7875C12.3063 13.4813 12.5375 13.1141 12.5375 12.6625C12.5375 12.3063 12.4125 12.0188 12.175 11.8C11.925 11.5703 11.5969 11.3969 11.2 11.275C10.7828 11.1484 10.2234 11.0078 9.525 10.8625C8.575 10.6609 7.76719 10.4188 7.125 10.15C6.46719 9.87344 5.9375 9.48906 5.55 9.0125C5.15625 8.52656 4.95 7.92813 4.95 7.2125C4.95 6.52969 5.16094 5.90469 5.575 5.375C5.98281 4.85 6.57969 4.44219 7.35 4.1625C8.10938 3.88438 9.01563 3.75 10.0375 3.75Z" fill="#228BE6"/>
</g>
<path d="M42.6223 0.274942C42.2812 -0.0430594 41.7453 -0.0885595 41.1913 0.155941H41.1904C40.6077 0.412942 24.6961 7.91496 24.0484 8.22146C23.9306 8.26646 22.9017 8.68847 23.0076 9.62847C23.1023 10.476 23.9292 10.827 24.0302 10.8675L28.0754 12.39C28.3438 13.372 29.3331 16.995 29.5519 17.769C29.6884 18.2515 29.9108 18.8855 30.3007 19.016C30.6427 19.161 30.983 19.0285 31.2031 18.8385L33.6763 16.317L37.6687 19.7395L37.7638 19.802C38.0349 19.934 38.2946 20 38.5425 20C38.7341 20 38.9178 19.9605 39.0934 19.8815C39.6916 19.6115 39.9308 18.985 39.9558 18.914L42.938 1.87545C43.12 0.965444 42.8671 0.502442 42.6223 0.274942ZM31.643 12.999L30.2784 16.999L28.9137 11.999L39.3759 3.49895L31.643 12.999Z" fill="#228BE6"/>
<path d="M58.8076 3.91304H60.7595C60.975 3.91304 61.1499 3.71826 61.1499 3.47826V0.54913C61.1499 0.321304 60.9926 0.131739 60.7888 0.115652C60.1677 0.0665218 58.9544 0 58.0819 0C55.6846 0 54.123 1.6 54.123 4.50783V7.3913H51.3904C51.1749 7.3913 51 7.58609 51 7.82609V10.8696C51 11.1096 51.1749 11.3043 51.3904 11.3043H54.123V19.5652C54.123 19.8052 54.2979 20 54.5134 20H57.2461C57.4616 20 57.6365 19.8052 57.6365 19.5652V11.3043H60.4558C60.6549 11.3043 60.822 11.1378 60.8438 10.9174L61.1476 7.87391C61.1733 7.61652 60.9922 7.3913 60.7595 7.3913H57.6365V5.21739C57.6365 4.49696 58.1608 3.91304 58.8076 3.91304Z" fill="#228BE6"/>
<g clip-path="url(#clip1_19833_4)">
<path d="M74.832 0C71.6164 0 69 2.61797 69 5.83438V14.1672C69 17.3832 71.618 20 74.8344 20H83.1672C86.3832 20 89 17.382 89 14.1656V5.83203C89 2.61643 86.382 0 83.1656 0H74.832ZM85 3.2C85.4416 3.2 85.8 3.5584 85.8 4C85.8 4.4416 85.4416 4.8 85 4.8C84.5584 4.8 84.2 4.4416 84.2 4C84.2 3.5584 84.5584 3.2 85 3.2ZM79 4.8C81.868 4.8 84.2 7.132 84.2 10C84.2 12.868 81.8676 15.2 79 15.2C76.132 15.2 73.8 12.8676 73.8 10C73.8 7.1324 76.132 4.8 79 4.8ZM79 6.4C77.0116 6.4 75.4 8.0116 75.4 10C75.4 11.9884 77.0116 13.6 79 13.6C80.9884 13.6 82.6 11.9884 82.6 10C82.6 8.0116 80.9884 6.4 79 6.4Z" fill="#228BE6"/>
</g>
<path d="M108.507 4.41604C108.191 3.20342 107.565 2.24556 106.648 1.56792C105.491 0.710262 104.159 0.407958 103.01 0.222839C101.419 -0.0319125 99.979 -0.0675775 98.605 0.112447C97.318 0.282281 96.3488 0.552316 95.465 0.98879C93.7321 1.84475 92.6917 3.2289 92.3739 5.10217C92.219 6.01248 92.1146 6.83447 92.0545 7.61911C91.9154 9.43293 92.0419 11.0379 92.4403 12.5256C92.8293 13.976 93.5076 15.012 94.5147 15.693C94.7709 15.8662 95.0997 15.9919 95.4175 16.1125C95.5978 16.1804 95.7733 16.2467 95.9171 16.3197C96.05 16.3859 96.05 16.3978 96.0484 16.5167C96.0373 17.5476 96.0484 19.5686 96.0484 19.5686L96.0515 20H96.7725L96.8895 19.8777C96.967 19.7996 98.7536 17.945 99.3908 17.1977L99.4778 17.0941C99.5869 16.9583 99.5869 16.9583 99.6991 16.9566C100.559 16.9379 101.438 16.9022 102.311 16.8513C103.369 16.7901 104.594 16.6797 105.748 16.1635C106.805 15.6896 107.576 14.9373 108.039 13.9284C108.523 12.8755 108.809 11.7359 108.917 10.4434C109.107 8.17107 108.972 6.19929 108.507 4.41604ZM104.703 13.2525C104.438 13.7161 104.042 14.0388 103.576 14.2477C103.234 14.4006 102.887 14.3683 102.55 14.2155C99.7307 12.9332 97.5188 10.9139 96.0579 8.00972C95.7559 7.41191 95.5472 6.75975 95.3068 6.12796C95.2578 5.99889 95.261 5.84604 95.2389 5.70338C95.2594 4.68268 95.9883 4.10694 96.7251 3.93371C97.0065 3.86578 97.2563 3.97277 97.465 4.18846C98.0437 4.77948 98.5006 5.46731 98.8453 6.23836C98.9955 6.57633 98.9275 6.87523 98.6714 7.12659C98.6176 7.17924 98.5623 7.22679 98.5038 7.27434C97.9188 7.74648 97.8334 8.10483 98.1449 8.81643C98.6761 10.0274 99.5584 10.8409 100.698 11.3453C100.999 11.4777 101.282 11.4115 101.511 11.15C101.543 11.116 101.577 11.082 101.6 11.0413C102.049 10.2362 102.702 10.3161 103.304 10.7746C103.699 11.0769 104.083 11.3962 104.474 11.7036C105.07 12.1741 105.065 12.6156 104.703 13.2525ZM100.964 5.21765C100.831 5.21765 100.698 5.22954 100.567 5.25332C100.346 5.29238 100.139 5.13274 100.101 4.89497C100.064 4.6589 100.213 4.43472 100.434 4.39566C100.608 4.36339 100.787 4.3481 100.964 4.3481C102.717 4.3481 104.144 5.88001 104.144 7.76346C104.144 7.95538 104.129 8.14729 104.099 8.33241C104.066 8.5447 103.895 8.69585 103.701 8.69585C103.679 8.69585 103.657 8.69415 103.633 8.68906C103.413 8.65 103.264 8.42582 103.301 8.18975C103.323 8.05048 103.334 7.90782 103.334 7.76346C103.334 6.36064 102.27 5.21765 100.964 5.21765ZM102.929 7.8263C102.929 8.06577 102.747 8.26108 102.525 8.26108C102.302 8.26108 102.12 8.06577 102.12 7.8263C102.12 7.10791 101.574 6.52198 100.905 6.52198C100.683 6.52198 100.501 6.32667 100.501 6.0872C100.501 5.84774 100.683 5.65243 100.905 5.65243C102.022 5.65243 102.929 6.62728 102.929 7.8263ZM105.241 8.79266C105.198 8.99476 105.031 9.13063 104.846 9.13063C104.816 9.13063 104.785 9.12723 104.755 9.12044C104.537 9.06609 104.401 8.83342 104.45 8.59905C104.509 8.32222 104.539 8.0352 104.539 7.74648C104.539 5.63375 102.937 3.91333 100.97 3.91333C100.702 3.91333 100.434 3.9456 100.177 4.00844C99.9584 4.06278 99.7418 3.91503 99.6928 3.68066C99.6422 3.44629 99.7797 3.21361 99.9979 3.16097C100.314 3.08284 100.641 3.04378 100.97 3.04378C103.385 3.04378 105.348 5.15312 105.348 7.74648C105.348 8.09974 105.312 8.45129 105.241 8.79266Z" fill="#228BE6"/>
<defs>
<clipPath id="clip0_19833_4">
<rect width="20" height="20" fill="white"/>
</clipPath>
<clipPath id="clip1_19833_4">
<rect width="20" height="20" fill="white" transform="translate(69)"/>
</clipPath>
</defs>
</svg>
