<?xml version="1.0" ?><!DOCTYPE svg  PUBLIC '-//W3C//DTD SVG 1.1//EN'  'http://www.w3.org/Graphics/SVG/1.1/DTD/svg11.dtd'><svg enable-background="new 0 0 512 512" id="Layer_1" version="1.1" viewBox="0 0 512 512" xml:space="preserve" xmlns="http://www.w3.org/2000/svg" xmlns:xlink="http://www.w3.org/1999/xlink"><g><path d="M258.8,507.2C120.4,507.8,6.6,392.6,9.9,251.9C13,118,124,7.2,262,8.7C398.7,10.2,511.8,124,508.1,264.9   C504.6,398.3,394.6,507.9,258.8,507.2z M477.8,257.9c-1-125.3-102.4-221.7-222-219.9C139.3,39.7,40.2,134.7,40.4,258.3   c0.2,125.3,102.4,221.6,222,219.7C378.8,476.2,476.9,381.4,477.8,257.9z"/><path d="M110.5,403.3c3.5-10.6,6.8-20.4,10-30.1c4.5-13.4,8.9-26.8,13.6-40.2c1.2-3.4,1.1-6.1-0.7-9.3   c-46-82.6,1.1-186.5,93.4-206.4c77.5-16.7,153.9,34.4,168.2,112.5c13.5,74.2-33.6,146-107.1,162.8c-32.4,7.4-63.9,3.7-93.8-11.2   c-4-2-7.3-2.5-11.7-1c-22.9,7.6-45.9,14.8-68.9,22.1C112.8,402.7,112.2,402.8,110.5,403.3z M146.9,367.5   c14.3-4.6,27.4-8.7,40.5-13.1c3-1,5.4-0.8,8.3,0.9c28.4,17.1,58.9,21.4,90.8,13.2c59.1-15.3,96.2-74.5,85.3-134.7   c-11-60.8-68.7-102.8-130.3-94.9c-85.7,11-130.5,108.1-83.1,180.3c2.4,3.7,2.6,6.6,1.2,10.5C155.3,341.9,151.3,354.2,146.9,367.5z"/><path d="M186,222.2c0.2-13.8,5.1-24.1,14.4-32.4c4.3-3.8,15-5.2,19.8-2.3c1.7,1,3,3.2,3.7,5.1c3.6,9.3,7.2,18.6,10.3,28.1   c0.7,2.3,0.1,5.7-1.1,7.8c-2.3,3.8-5.5,7.1-8.6,10.3c-2.3,2.4-2.8,4.6-1.2,7.6c10.9,20.2,26.7,35,47.7,44.4c3.1,1.4,5.7,0.8,8-1.9   c3.5-4.2,7.3-8.2,10.8-12.5c2.2-2.8,4.8-3.6,7.9-2c9.7,5,19.6,9.9,29,15.5c1.7,1,2.8,4.8,2.6,7.2c-1.3,17.2-13,24.5-27.9,27.9   c-6.9,1.6-13.4,0.2-20.1-1.8c-41.5-11.9-68.9-40-88.6-76.9C188.5,238.4,186.1,230,186,222.2z"/></g></svg>